<svg width="401" height="242" viewBox="0 0 200 126" fill="none" xmlns="http://www.w3.org/2000/svg">
<path d="M179.057 0H20.966C18.646 0 16.7653 2.00443 16.7653 4.47703V118.838C16.7653 121.311 18.646 123.315 20.966 123.315H179.057C181.377 123.315 183.257 121.311 183.257 118.838V4.47703C183.257 2.00443 181.377 0 179.057 0Z" fill="url(#paint0_radial_35_442)"/>
<path d="M178.596 1.36597H21.4269C19.5602 1.36597 18.047 2.97875 18.047 4.96821V118.347C18.047 120.336 19.5602 121.949 21.4269 121.949H178.596C180.462 121.949 181.976 120.336 181.976 118.347V4.96821C181.976 2.97875 180.462 1.36597 178.596 1.36597Z" fill="#231F20"/>
<path d="M176.697 1.36597H23.3198C21.9195 1.36829 20.5774 1.96253 19.5878 3.01829C18.5982 4.07405 18.042 5.50508 18.0413 6.99739V116.317C18.042 117.81 18.5982 119.241 19.5878 120.296C20.5774 121.352 21.9195 121.946 23.3198 121.949H176.697C178.097 121.946 179.439 121.352 180.429 120.296C181.418 119.241 181.975 117.81 181.975 116.317V6.99739C181.975 5.50508 181.418 4.07405 180.429 3.01829C179.439 1.96253 178.097 1.36829 176.697 1.36597ZM181.332 116.317C181.332 117.628 180.844 118.885 179.975 119.813C179.106 120.74 177.927 121.261 176.697 121.262H23.3198C22.0904 121.26 20.9121 120.738 20.0432 119.811C19.1744 118.884 18.6859 117.628 18.685 116.317V6.99739C18.6858 5.68714 19.1743 4.43075 20.0431 3.5038C20.912 2.57684 22.0904 2.05503 23.3198 2.0528H176.697C177.927 2.05351 179.106 2.57484 179.975 3.50212C180.844 4.4294 181.332 5.68668 181.332 6.99739V116.317Z" fill="#494143"/>
<path d="M177.15 9.16382H22.6484V111.503H177.15V9.16382Z" fill="url(#paint1_radial_35_442)"/>
<path opacity="0.2" d="M116.286 1.36597H23.3255C21.9253 1.36829 20.5831 1.96253 19.5935 3.01829C18.604 4.07405 18.0478 5.50508 18.047 6.99739V116.317C18.0478 117.81 18.604 119.241 19.5935 120.296C20.5831 121.352 21.9253 121.946 23.3255 121.949H82.7674L116.286 1.36597Z" fill="url(#paint2_radial_35_442)"/>
<path d="M100.199 119.217H0V122.916C1.16845 123.775 2.43262 124.477 3.76344 125.004C5.68351 125.756 6.78602 125.666 8.97491 125.726H191.021C193.21 125.666 194.313 125.756 196.238 125.004C197.569 124.475 198.833 123.774 200.002 122.916V119.217H100.199Z" fill="url(#paint3_linear_35_442)"/>
<path d="M113.583 119.217H86.4118C86.4118 119.217 85.9584 121.949 91.2369 121.949H108.758C114.036 121.949 113.583 119.217 113.583 119.217Z" fill="url(#paint4_linear_35_442)"/>
<path d="M176.917 9.72339H22.7516V111.46H176.917V9.72339Z" fill="white"/>
<path d="M94.4567 25.309H45.0646V26.4912H94.4567V25.309Z" fill="#C5C6CB"/>
<path d="M86.056 27.2793H45.0646V28.4616H86.056V27.2793Z" fill="#C5C6CB"/>
<path d="M82.1889 29.514H45.0646V30.6964H82.1889V29.514Z" fill="#C5C6CB"/>
<path d="M166.585 25.309H142.137V26.4912H166.585V25.309Z" fill="#C5C6CB"/>
<path d="M166.585 27.219H142.137V28.4013H166.585V27.219Z" fill="#C5C6CB"/>
<path d="M131.257 25.309H111.618V26.4912H131.257V25.309Z" fill="#C5C6CB"/>
<path d="M133.773 27.1713H111.618V28.3535H133.773V27.1713Z" fill="#C5C6CB"/>
<path d="M94.4567 43.4371H45.0646V44.6194H94.4567V43.4371Z" fill="#C5C6CB"/>
<path d="M79.4818 45.4075H45.0646V46.5898H79.4818V45.4075Z" fill="#C5C6CB"/>
<path d="M87.9897 47.6421H45.0646V48.8244H87.9897V47.6421Z" fill="#C5C6CB"/>
<path d="M166.585 43.4371H142.137V44.6194H166.585V43.4371Z" fill="#C5C6CB"/>
<path d="M166.585 45.347H142.137V46.5293H166.585V45.347Z" fill="#C5C6CB"/>
<path d="M131.257 43.4371H111.618V44.6194H131.257V43.4371Z" fill="#C5C6CB"/>
<path d="M132.5 45.2993H111.618V46.4816H132.5V45.2993Z" fill="#C5C6CB"/>
<path d="M94.4567 61.9586H45.0646V63.1409H94.4567V61.9586Z" fill="#C5C6CB"/>
<path d="M89.1495 63.9294H45.0646V65.1117H89.1495V63.9294Z" fill="#C5C6CB"/>
<path d="M87.6029 66.1641H45.0646V67.3464H87.6029V66.1641Z" fill="#C5C6CB"/>
<path d="M166.585 61.9591H142.137V63.1414H166.585V61.9591Z" fill="#C5C6CB"/>
<path d="M166.585 63.869H142.137V65.0513H166.585V63.869Z" fill="#C5C6CB"/>
<path d="M131.257 61.9591H111.618V63.1414H131.257V61.9591Z" fill="#C5C6CB"/>
<path d="M135.018 63.8213H111.618V65.0036H135.018V63.8213Z" fill="#C5C6CB"/>
<path d="M94.4567 80.0868H45.0646V81.2691H94.4567V80.0868Z" fill="#C5C6CB"/>
<path d="M91.7721 82.0571H45.0646V83.2394H91.7721V82.0571Z" fill="#C5C6CB"/>
<path d="M86.4427 84.2919H45.0646V85.4742H86.4427V84.2919Z" fill="#C5C6CB"/>
<path d="M166.585 80.0868H142.137V81.2691H166.585V80.0868Z" fill="#C5C6CB"/>
<path d="M166.585 81.9968H142.137V83.1791H166.585V81.9968Z" fill="#C5C6CB"/>
<path d="M131.257 80.0868H111.618V81.2691H131.257V80.0868Z" fill="#C5C6CB"/>
<path d="M135.018 81.9495H111.618V83.1317H135.018V81.9495Z" fill="#C5C6CB"/>
<path d="M94.4567 98.6088H45.0646V99.791H94.4567V98.6088Z" fill="#C5C6CB"/>
<path d="M93.0169 100.579H45.0646V101.762H93.0169V100.579Z" fill="#C5C6CB"/>
<path d="M88.6785 102.814H45.0646V103.996H88.6785V102.814Z" fill="#C5C6CB"/>
<path d="M166.585 98.6088H142.137V99.791H166.585V98.6088Z" fill="#C5C6CB"/>
<path d="M166.585 100.519H142.137V101.701H166.585V100.519Z" fill="#C5C6CB"/>
<path d="M131.257 98.6088H111.618V99.791H131.257V98.6088Z" fill="#C5C6CB"/>
<path d="M133.773 100.471H111.618V101.654H133.773V100.471Z" fill="#C5C6CB"/>
<path d="M40.1046 37.4355H25.6838V52.8049H40.1046V37.4355Z" fill="#C5C6CB"/>
<path d="M40.1046 55.9877H25.6838V71.357H40.1046V55.9877Z" fill="#C5C6CB"/>
<path d="M40.1046 74.1456H25.6838V89.5149H40.1046V74.1456Z" fill="#C5C6CB"/>
<path d="M40.1046 92.6978H25.6838V108.067H40.1046V92.6978Z" fill="#C5C6CB"/>
<path d="M40.1046 19.278H25.6838V34.6473H40.1046V19.278Z" fill="#C5C6CB"/>
<path d="M176.917 9.44763H22.7258V15.7529H176.917V9.44763Z" fill="#ACACAC"/>
<g filter="url(#filter0_d_35_442)">
<path d="M99.661 91.8188C116.885 91.8188 130.847 76.9378 130.847 58.5811C130.847 40.2244 116.885 25.3434 99.661 25.3434C82.4372 25.3434 68.4746 40.2244 68.4746 58.5811C68.4746 76.9378 82.4372 91.8188 99.661 91.8188Z" fill="white"/>
<path d="M99.661 90.4818C116.192 90.4818 129.593 76.1994 129.593 58.5811C129.593 40.9629 116.192 26.6804 99.661 26.6804C83.1301 26.6804 69.7291 40.9629 69.7291 58.5811C69.7291 76.1994 83.1301 90.4818 99.661 90.4818Z" stroke="#00D3D4" stroke-width="7"/>
</g>
<path d="M121.717 48.5291L93.8747 78.2039L76.3367 59.5166L83.7671 51.5981L93.8747 62.3705L114.288 40.6115L121.717 48.5291Z" fill="#029FA0"/>
<path d="M121.716 48.5291L93.875 78.2039V62.3667L114.287 40.6115L121.716 48.5291Z" fill="#00D3D4"/>
<defs>
<filter id="filter0_d_35_442" x="47.2291" y="7.18042" width="104.864" height="108.801" filterUnits="userSpaceOnUse" color-interpolation-filters="sRGB">
<feFlood flood-opacity="0" result="BackgroundImageFix"/>
<feColorMatrix in="SourceAlpha" type="matrix" values="0 0 0 0 0 0 0 0 0 0 0 0 0 0 0 0 0 0 127 0" result="hardAlpha"/>
<feOffset dy="3"/>
<feGaussianBlur stdDeviation="9.5"/>
<feColorMatrix type="matrix" values="0 0 0 0 0 0 0 0 0 0 0 0 0 0 0 0 0 0 0.161 0"/>
<feBlend mode="normal" in2="BackgroundImageFix" result="effect1_dropShadow_35_442"/>
<feBlend mode="normal" in="SourceGraphic" in2="effect1_dropShadow_35_442" result="shape"/>
</filter>
<radialGradient id="paint0_radial_35_442" cx="0" cy="0" r="1" gradientUnits="userSpaceOnUse" gradientTransform="translate(71.242 18.4973) scale(71.6382 76.4555)">
<stop stop-color="#DAD8DB"/>
<stop offset="1" stop-color="#868686"/>
</radialGradient>
<radialGradient id="paint1_radial_35_442" cx="0" cy="0" r="1" gradientUnits="userSpaceOnUse" gradientTransform="translate(70.6893 60.3335) scale(92.4916 98.6551)">
<stop stop-color="#6E7072"/>
<stop offset="0.63" stop-color="#626566"/>
<stop offset="1" stop-color="#595C5D"/>
</radialGradient>
<radialGradient id="paint2_radial_35_442" cx="0" cy="0" r="1" gradientUnits="userSpaceOnUse" gradientTransform="translate(213.46 69.7364) scale(156.155 166.525)">
<stop stop-color="white"/>
<stop offset="0.09" stop-color="white" stop-opacity="0.949"/>
<stop offset="0.25" stop-color="white" stop-opacity="0.831"/>
<stop offset="0.45" stop-color="white" stop-opacity="0.631"/>
<stop offset="0.7" stop-color="white" stop-opacity="0.361"/>
<stop offset="0.99" stop-color="white" stop-opacity="0.02"/>
<stop offset="1" stop-color="white" stop-opacity="0"/>
</radialGradient>
<linearGradient id="paint3_linear_35_442" x1="100.001" y1="125.648" x2="100.001" y2="120.961" gradientUnits="userSpaceOnUse">
<stop stop-color="#6A6C6D"/>
<stop offset="0.29" stop-color="#818484"/>
<stop offset="1" stop-color="#B7BCB9"/>
</linearGradient>
<linearGradient id="paint4_linear_35_442" x1="86.4021" y1="120.583" x2="113.593" y2="120.583" gradientUnits="userSpaceOnUse">
<stop stop-color="#6A6C6D"/>
<stop offset="0.04" stop-color="#8B8F8E"/>
<stop offset="0.1" stop-color="#AEB4B0"/>
<stop offset="0.15" stop-color="#C9D1CB"/>
<stop offset="0.21" stop-color="#DCE5DF"/>
<stop offset="0.26" stop-color="#E8F2EA"/>
<stop offset="0.32" stop-color="#ECF6EE"/>
<stop offset="0.7" stop-color="#ECF6EE"/>
<stop offset="0.74" stop-color="#E4EEE7"/>
<stop offset="0.8" stop-color="#D0D8D2"/>
<stop offset="0.88" stop-color="#AEB4B0"/>
<stop offset="0.96" stop-color="#7F8382"/>
<stop offset="1" stop-color="#6A6C6D"/>
</linearGradient>
</defs>
</svg>
