<svg width="242" height="345" viewBox="0 0 200 286" fill="none" xmlns="http://www.w3.org/2000/svg">
<g clip-path="url(#clip0_35_213)">
<path d="M192.95 0H7.05016C3.15646 0 0 3.15991 0 7.05785V278.066C0 281.964 3.15646 285.124 7.05016 285.124H192.95C196.844 285.124 200 281.964 200 278.066V7.05785C200 3.15991 196.844 0 192.95 0Z" fill="url(#paint0_radial_35_213)"/>
<path d="M192.651 0.680176H7.34985C3.66589 0.680176 0.679443 3.66988 0.679443 7.35786V277.782C0.679443 281.47 3.66589 284.459 7.34985 284.459H192.651C196.335 284.459 199.321 281.47 199.321 277.782V7.35786C199.321 3.66988 196.335 0.680176 192.651 0.680176Z" fill="url(#paint1_radial_35_213)"/>
<path d="M192.651 0.680176H7.34985C3.66589 0.680176 0.679443 3.66988 0.679443 7.35786V277.782C0.679443 281.47 3.66589 284.459 7.34985 284.459H192.651C196.335 284.459 199.321 281.47 199.321 277.782V7.35786C199.321 3.66988 196.335 0.680176 192.651 0.680176Z" fill="url(#paint2_radial_35_213)"/>
<path d="M191.895 2.3645H8.09122C4.92703 2.3645 2.36194 4.93239 2.36194 8.10004V277.024C2.36194 280.192 4.92703 282.76 8.09122 282.76H191.895C195.059 282.76 197.624 280.192 197.624 277.024V8.10004C197.624 4.93239 195.059 2.3645 191.895 2.3645Z" fill="#231F20"/>
<path d="M186.98 25.3579H12.7976V259.367H186.98V25.3579Z" fill="url(#paint3_radial_35_213)"/>
<path d="M94.4721 274.574C95.0787 275.39 95.8557 276.064 96.749 276.549C97.6423 277.034 98.6304 277.319 99.6447 277.383C100.659 277.447 101.675 277.289 102.622 276.921C103.569 276.552 104.425 275.981 105.129 275.247C105.834 274.514 106.37 273.636 106.701 272.674C107.032 271.712 107.149 270.689 107.045 269.677C106.942 268.665 106.619 267.688 106.099 266.813C105.58 265.939 104.876 265.188 104.038 264.613C104.038 264.613 104.643 268.293 102.753 269.874C100.863 271.456 98.9746 269.475 97.3797 269.475C95.7847 269.475 93.2181 271.145 94.4721 274.574Z" fill="url(#paint4_linear_35_213)"/>
<path opacity="0.3" d="M99.9934 274.144C99.3015 274.144 98.625 273.938 98.0497 273.554C97.4743 273.169 97.0259 272.622 96.7611 271.982C96.4963 271.342 96.427 270.637 96.562 269.958C96.697 269.279 97.0302 268.655 97.5195 268.165C98.0088 267.675 98.6322 267.341 99.3109 267.206C99.9895 267.071 100.693 267.14 101.332 267.406C101.972 267.671 102.518 268.12 102.902 268.696C103.287 269.271 103.492 269.949 103.492 270.641C103.492 271.57 103.123 272.461 102.467 273.118C101.811 273.775 100.921 274.144 99.9934 274.144ZM99.9934 267.879C99.4474 267.879 98.9137 268.041 98.4597 268.344C98.0057 268.648 97.6519 269.08 97.4429 269.585C97.234 270.09 97.1793 270.645 97.2858 271.181C97.3924 271.717 97.6553 272.21 98.0414 272.596C98.4274 272.983 98.9193 273.246 99.4549 273.353C99.9904 273.459 100.545 273.405 101.05 273.195C101.554 272.986 101.985 272.632 102.289 272.178C102.592 271.723 102.754 271.189 102.754 270.642C102.754 269.909 102.463 269.206 101.945 268.688C101.428 268.17 100.726 267.879 99.9934 267.879Z" fill="white"/>
<path opacity="0.2" d="M141.56 2.3645H12.6061C9.89865 2.38541 7.30773 3.47022 5.39158 5.38522C3.47542 7.30022 2.38741 9.89212 2.36194 12.6025V272.52C2.36456 275.237 3.44526 277.843 5.36635 279.762C7.28743 281.682 9.8916 282.76 12.6061 282.758H58.3661L141.56 2.3645Z" fill="url(#paint5_radial_35_213)"/>
<path d="M186.677 25.2991H13.2087V258.893H186.677V25.2991Z" fill="white"/>
<path d="M186.677 25.2991H13.2087V46.0635H186.677V25.2991Z" fill="#029FA0"/>
<path d="M184.159 98.6428H15.7473V99.4693H184.159V98.6428Z" fill="#EBEBEB"/>
<path d="M184.159 120.957H15.7473V121.783H184.159V120.957Z" fill="#EBEBEB"/>
<path d="M184.159 143.271H15.7473V144.097H184.159V143.271Z" fill="#EBEBEB"/>
<path d="M184.159 165.585H15.7473V166.411H184.159V165.585Z" fill="#EBEBEB"/>
<path d="M184.159 187.899H15.7473V188.725H184.159V187.899Z" fill="#EBEBEB"/>
<path d="M184.159 210.213H15.7473V211.04H184.159V210.213Z" fill="#EBEBEB"/>
<path d="M184.159 232.527H15.7473V233.354H184.159V232.527Z" fill="#EBEBEB"/>
<path d="M149.424 224.821H178.318V221.515H149.424V224.821Z" fill="#C5C6CB"/>
<path d="M152.726 247.135H178.318V243.829H152.726V247.135Z" fill="#C5C6CB"/>
<path d="M153.552 180.192H178.318V176.887H153.552V180.192Z" fill="#C5C6CB"/>
<path d="M151.075 135.564H178.318V132.258H151.075V135.564Z" fill="#C5C6CB"/>
<path d="M152.726 202.506H178.318V199.201H152.726V202.506Z" fill="#C5C6CB"/>
<path d="M158.505 157.878H178.318V154.573H158.505V157.878Z" fill="#C5C6CB"/>
<path d="M155.203 113.25H178.318V109.944H155.203V113.25Z" fill="#C5C6CB"/>
<path d="M76.7758 105.812H22.2898V109.118H76.7758V105.812Z" fill="#C5C6CB"/>
<path d="M67.6948 112.424H22.2898V115.73H67.6948V112.424Z" fill="#C5C6CB"/>
<path d="M67.6948 150.44H22.2898V153.746H67.6948V150.44Z" fill="#C5C6CB"/>
<path d="M60.2649 157.052H22.2898V160.358H60.2649V157.052Z" fill="#C5C6CB"/>
<path d="M72.6481 195.068H22.2898V198.374H72.6481V195.068Z" fill="#C5C6CB"/>
<path d="M64.3926 201.68H22.2898V204.986H64.3926V201.68Z" fill="#C5C6CB"/>
<path d="M70.1714 128.126H22.2898V131.432H70.1714V128.126Z" fill="#C5C6CB"/>
<path d="M61.916 134.738H22.2898V138.044H61.916V134.738Z" fill="#C5C6CB"/>
<path d="M60.2649 172.754H22.2898V176.06H60.2649V172.754Z" fill="#C5C6CB"/>
<path d="M53.6605 179.366H22.2898V182.672H53.6605V179.366Z" fill="#C5C6CB"/>
<path d="M65.2182 217.383H22.2898V220.688H65.2182V217.383Z" fill="#C5C6CB"/>
<path d="M72.6481 239.697H22.2898V243.002H72.6481V239.697Z" fill="#C5C6CB"/>
<path d="M57.7883 223.994H22.2898V227.3H57.7883V223.994Z" fill="#C5C6CB"/>
<path d="M66.0437 246.308H22.2898V249.614H66.0437V246.308Z" fill="#C5C6CB"/>
<path d="M148.022 119.44V117.856C147.51 117.803 147.014 117.664 146.534 117.44C146.054 117.206 145.644 116.934 145.302 116.624L145.91 115.712C146.252 116.011 146.625 116.267 147.03 116.48C147.446 116.683 147.9 116.784 148.39 116.784C148.988 116.784 149.43 116.635 149.718 116.336C150.017 116.027 150.166 115.627 150.166 115.136C150.166 114.699 150.06 114.342 149.846 114.064C149.633 113.787 149.356 113.547 149.014 113.344C148.673 113.142 148.31 112.95 147.926 112.768C147.553 112.576 147.196 112.368 146.854 112.144C146.513 111.91 146.236 111.622 146.022 111.28C145.809 110.939 145.702 110.507 145.702 109.984C145.702 109.27 145.916 108.678 146.342 108.208C146.769 107.728 147.329 107.435 148.022 107.328V105.712H148.982V107.296C149.494 107.35 149.926 107.488 150.278 107.712C150.641 107.936 150.966 108.203 151.254 108.512L150.55 109.296C150.252 109.008 149.958 108.784 149.67 108.624C149.393 108.464 149.036 108.384 148.598 108.384C148.108 108.384 147.718 108.523 147.43 108.8C147.142 109.078 146.998 109.451 146.998 109.92C146.998 110.304 147.105 110.624 147.318 110.88C147.532 111.126 147.809 111.339 148.15 111.52C148.492 111.702 148.849 111.883 149.222 112.064C149.606 112.246 149.969 112.459 150.31 112.704C150.652 112.939 150.929 113.243 151.142 113.616C151.356 113.99 151.462 114.464 151.462 115.04C151.462 115.798 151.238 116.427 150.79 116.928C150.342 117.419 149.74 117.718 148.982 117.824V119.44H148.022Z" fill="#C5C6CB"/>
<path d="M144.72 141.754V140.17C144.208 140.117 143.712 139.978 143.232 139.754C142.752 139.519 142.342 139.247 142 138.938L142.608 138.026C142.95 138.325 143.323 138.581 143.728 138.794C144.144 138.997 144.598 139.098 145.088 139.098C145.686 139.098 146.128 138.949 146.416 138.65C146.715 138.341 146.864 137.941 146.864 137.45C146.864 137.013 146.758 136.655 146.544 136.378C146.331 136.101 146.054 135.861 145.712 135.658C145.371 135.455 145.008 135.263 144.624 135.082C144.251 134.89 143.894 134.682 143.552 134.458C143.211 134.223 142.934 133.935 142.72 133.594C142.507 133.253 142.4 132.821 142.4 132.298C142.4 131.583 142.614 130.991 143.04 130.522C143.467 130.042 144.027 129.749 144.72 129.642V128.026H145.68V129.61C146.192 129.663 146.624 129.802 146.976 130.026C147.339 130.25 147.664 130.517 147.952 130.826L147.248 131.61C146.95 131.322 146.656 131.098 146.368 130.938C146.091 130.778 145.734 130.698 145.296 130.698C144.806 130.698 144.416 130.837 144.128 131.114C143.84 131.391 143.696 131.765 143.696 132.234C143.696 132.618 143.803 132.938 144.016 133.194C144.23 133.439 144.507 133.653 144.848 133.834C145.19 134.015 145.547 134.197 145.92 134.378C146.304 134.559 146.667 134.773 147.008 135.018C147.35 135.253 147.627 135.557 147.84 135.93C148.054 136.303 148.16 136.778 148.16 137.354C148.16 138.111 147.936 138.741 147.488 139.242C147.04 139.733 146.438 140.031 145.68 140.138V141.754H144.72Z" fill="#C5C6CB"/>
<path d="M151.325 164.068V162.484C150.813 162.431 150.317 162.292 149.837 162.068C149.357 161.834 148.946 161.562 148.605 161.252L149.213 160.34C149.554 160.639 149.927 160.895 150.333 161.108C150.749 161.311 151.202 161.412 151.693 161.412C152.29 161.412 152.733 161.263 153.021 160.964C153.319 160.655 153.469 160.255 153.469 159.764C153.469 159.327 153.362 158.97 153.149 158.692C152.935 158.415 152.658 158.175 152.317 157.972C151.975 157.77 151.613 157.578 151.229 157.396C150.855 157.204 150.498 156.996 150.157 156.772C149.815 156.538 149.538 156.25 149.325 155.908C149.111 155.567 149.005 155.135 149.005 154.612C149.005 153.898 149.218 153.306 149.645 152.836C150.071 152.356 150.631 152.063 151.325 151.956V150.34H152.285V151.924C152.797 151.978 153.229 152.116 153.581 152.34C153.943 152.564 154.269 152.831 154.557 153.14L153.853 153.924C153.554 153.636 153.261 153.412 152.973 153.252C152.695 153.092 152.338 153.012 151.901 153.012C151.41 153.012 151.021 153.151 150.733 153.428C150.445 153.706 150.301 154.079 150.301 154.548C150.301 154.932 150.407 155.252 150.621 155.508C150.834 155.754 151.111 155.967 151.453 156.148C151.794 156.33 152.151 156.511 152.525 156.692C152.909 156.874 153.271 157.087 153.613 157.332C153.954 157.567 154.231 157.871 154.445 158.244C154.658 158.618 154.765 159.092 154.765 159.668C154.765 160.426 154.541 161.055 154.093 161.556C153.645 162.047 153.042 162.346 152.285 162.452V164.068H151.325Z" fill="#C5C6CB"/>
<path d="M146.371 186.382V184.798C145.859 184.745 145.363 184.606 144.883 184.382C144.403 184.148 143.993 183.876 143.651 183.566L144.259 182.654C144.601 182.953 144.974 183.209 145.379 183.422C145.795 183.625 146.249 183.726 146.739 183.726C147.337 183.726 147.779 183.577 148.067 183.278C148.366 182.969 148.515 182.569 148.515 182.078C148.515 181.641 148.409 181.284 148.195 181.006C147.982 180.729 147.705 180.489 147.363 180.286C147.022 180.084 146.659 179.892 146.275 179.71C145.902 179.518 145.545 179.31 145.203 179.086C144.862 178.852 144.585 178.564 144.371 178.222C144.158 177.881 144.051 177.449 144.051 176.926C144.051 176.212 144.265 175.62 144.691 175.15C145.118 174.67 145.678 174.377 146.371 174.27V172.654H147.331V174.238C147.843 174.292 148.275 174.43 148.627 174.654C148.99 174.878 149.315 175.145 149.603 175.454L148.899 176.238C148.601 175.95 148.307 175.726 148.019 175.566C147.742 175.406 147.385 175.326 146.947 175.326C146.457 175.326 146.067 175.465 145.779 175.742C145.491 176.02 145.347 176.393 145.347 176.862C145.347 177.246 145.454 177.566 145.667 177.822C145.881 178.068 146.158 178.281 146.499 178.462C146.841 178.644 147.198 178.825 147.571 179.006C147.955 179.188 148.318 179.401 148.659 179.646C149.001 179.881 149.278 180.185 149.491 180.558C149.705 180.932 149.811 181.406 149.811 181.982C149.811 182.74 149.587 183.369 149.139 183.87C148.691 184.361 148.089 184.66 147.331 184.766V186.382H146.371Z" fill="#C5C6CB"/>
<path d="M145.546 208.696V207.112C145.034 207.059 144.538 206.92 144.058 206.696C143.578 206.462 143.167 206.19 142.826 205.88L143.434 204.968C143.775 205.267 144.148 205.523 144.554 205.736C144.97 205.939 145.423 206.04 145.914 206.04C146.511 206.04 146.954 205.891 147.242 205.592C147.54 205.283 147.69 204.883 147.69 204.392C147.69 203.955 147.583 203.598 147.37 203.32C147.156 203.043 146.879 202.803 146.538 202.6C146.196 202.398 145.834 202.206 145.45 202.024C145.076 201.832 144.719 201.624 144.378 201.4C144.036 201.166 143.759 200.878 143.546 200.536C143.332 200.195 143.226 199.763 143.226 199.24C143.226 198.526 143.439 197.934 143.866 197.464C144.292 196.984 144.852 196.691 145.546 196.584V194.968H146.506V196.552C147.018 196.606 147.45 196.744 147.802 196.968C148.164 197.192 148.49 197.459 148.778 197.768L148.074 198.552C147.775 198.264 147.482 198.04 147.194 197.88C146.916 197.72 146.559 197.64 146.122 197.64C145.631 197.64 145.242 197.779 144.954 198.056C144.666 198.334 144.522 198.707 144.522 199.176C144.522 199.56 144.628 199.88 144.842 200.136C145.055 200.382 145.332 200.595 145.674 200.776C146.015 200.958 146.372 201.139 146.746 201.32C147.13 201.502 147.492 201.715 147.834 201.96C148.175 202.195 148.452 202.499 148.666 202.872C148.879 203.246 148.986 203.72 148.986 204.296C148.986 205.054 148.762 205.683 148.314 206.184C147.866 206.675 147.263 206.974 146.506 207.08V208.696H145.546Z" fill="#C5C6CB"/>
<path d="M142.244 231.01V229.426C141.732 229.373 141.236 229.234 140.756 229.01C140.276 228.776 139.865 228.504 139.524 228.194L140.132 227.282C140.473 227.581 140.846 227.837 141.252 228.05C141.668 228.253 142.121 228.354 142.612 228.354C143.209 228.354 143.652 228.205 143.94 227.906C144.238 227.597 144.388 227.197 144.388 226.706C144.388 226.269 144.281 225.912 144.068 225.634C143.854 225.357 143.577 225.117 143.236 224.914C142.894 224.712 142.532 224.52 142.148 224.338C141.774 224.146 141.417 223.938 141.076 223.714C140.734 223.48 140.457 223.192 140.244 222.85C140.03 222.509 139.924 222.077 139.924 221.554C139.924 220.84 140.137 220.248 140.564 219.778C140.99 219.298 141.55 219.005 142.244 218.898V217.282H143.204V218.866C143.716 218.92 144.148 219.058 144.5 219.282C144.862 219.506 145.188 219.773 145.476 220.082L144.772 220.866C144.473 220.578 144.18 220.354 143.892 220.194C143.614 220.034 143.257 219.954 142.82 219.954C142.329 219.954 141.94 220.093 141.652 220.37C141.364 220.648 141.22 221.021 141.22 221.49C141.22 221.874 141.326 222.194 141.54 222.45C141.753 222.696 142.03 222.909 142.372 223.09C142.713 223.272 143.07 223.453 143.444 223.634C143.828 223.816 144.19 224.029 144.532 224.274C144.873 224.509 145.15 224.813 145.364 225.186C145.577 225.56 145.684 226.034 145.684 226.61C145.684 227.368 145.46 227.997 145.012 228.498C144.564 228.989 143.961 229.288 143.204 229.394V231.01H142.244Z" fill="#C5C6CB"/>
<path d="M144.72 253.324V251.74C144.208 251.687 143.712 251.548 143.232 251.324C142.752 251.09 142.342 250.818 142 250.508L142.608 249.596C142.95 249.895 143.323 250.151 143.728 250.364C144.144 250.567 144.598 250.668 145.088 250.668C145.686 250.668 146.128 250.519 146.416 250.22C146.715 249.911 146.864 249.511 146.864 249.02C146.864 248.583 146.758 248.226 146.544 247.948C146.331 247.671 146.054 247.431 145.712 247.228C145.371 247.026 145.008 246.834 144.624 246.652C144.251 246.46 143.894 246.252 143.552 246.028C143.211 245.794 142.934 245.506 142.72 245.164C142.507 244.823 142.4 244.391 142.4 243.868C142.4 243.154 142.614 242.562 143.04 242.092C143.467 241.612 144.027 241.319 144.72 241.212V239.596H145.68V241.18C146.192 241.234 146.624 241.372 146.976 241.596C147.339 241.82 147.664 242.087 147.952 242.396L147.248 243.18C146.95 242.892 146.656 242.668 146.368 242.508C146.091 242.348 145.734 242.268 145.296 242.268C144.806 242.268 144.416 242.407 144.128 242.684C143.84 242.962 143.696 243.335 143.696 243.804C143.696 244.188 143.803 244.508 144.016 244.764C144.23 245.01 144.507 245.223 144.848 245.404C145.19 245.586 145.547 245.767 145.92 245.948C146.304 246.13 146.667 246.343 147.008 246.588C147.35 246.823 147.627 247.127 147.84 247.5C148.054 247.874 148.16 248.348 148.16 248.924C148.16 249.682 147.936 250.311 147.488 250.812C147.04 251.303 146.438 251.602 145.68 251.708V253.324H144.72Z" fill="#C5C6CB"/>
<path d="M176.667 60.7568H146.947C146.035 60.7568 145.296 61.4969 145.296 62.4097V78.9386C145.296 79.8515 146.035 80.5915 146.947 80.5915H176.667C177.579 80.5915 178.318 79.8515 178.318 78.9386V62.4097C178.318 61.4969 177.579 60.7568 176.667 60.7568Z" fill="#92A1FF"/>
<path d="M178.318 64.0627H145.296V66.5421H178.318V64.0627Z" fill="#F2F4FF"/>
<path d="M152.726 69.0212H146.947V69.8477H152.726V69.0212Z" fill="#F2F4FF"/>
<path d="M154.377 70.6741H146.947V71.5005H154.377V70.6741Z" fill="#F2F4FF"/>
<path d="M152.726 72.3271H146.947V73.1536H152.726V72.3271Z" fill="#F2F4FF"/>
<path d="M99.8911 60.7561H22.2898V66.5412H99.8911V60.7561Z" fill="#C5C6CB"/>
<path d="M99.8911 73.1528H22.2898V75.6322H99.8911V73.1528Z" fill="#C5C6CB"/>
<path d="M105.67 77.2849H22.2898V79.7643H105.67V77.2849Z" fill="#C5C6CB"/>
<path d="M104.019 81.4172H22.2898V83.8966H104.019V81.4172Z" fill="#C5C6CB"/>
<path d="M166.76 31.4973H182.446" stroke="white" stroke-width="2"/>
<path d="M166.76 35.6296H182.446" stroke="white" stroke-width="2"/>
<path d="M166.76 39.7617H182.446" stroke="white" stroke-width="2"/>
<path d="M21.704 42V33.376H24.296L24.808 34.208C25.1493 33.9413 25.512 33.712 25.896 33.52C26.2907 33.328 26.8133 33.232 27.464 33.232C27.9973 33.232 28.4347 33.344 28.776 33.568C29.128 33.7813 29.3947 34.0587 29.576 34.4C29.8 34.2293 30.056 34.0533 30.344 33.872C30.632 33.6907 30.9413 33.5413 31.272 33.424C31.6133 33.296 31.9547 33.232 32.296 33.232C33.032 33.232 33.5973 33.3653 33.992 33.632C34.3973 33.888 34.6747 34.2667 34.824 34.768C34.9733 35.2587 35.048 35.856 35.048 36.56V42H31.944V36.848C31.944 36.624 31.9067 36.4533 31.832 36.336C31.7573 36.2187 31.656 36.1387 31.528 36.096C31.4107 36.0427 31.2667 36.016 31.096 36.016C30.8827 36.016 30.6693 36.064 30.456 36.16C30.2427 36.256 30.0667 36.3733 29.928 36.512C29.928 36.576 29.928 36.6453 29.928 36.72C29.928 36.784 29.928 36.848 29.928 36.912V42H26.824V36.848C26.824 36.624 26.7867 36.4533 26.712 36.336C26.6373 36.2187 26.536 36.1387 26.408 36.096C26.2907 36.0427 26.1467 36.016 25.976 36.016C25.8373 36.016 25.6933 36.0373 25.544 36.08C25.3947 36.1227 25.256 36.1813 25.128 36.256C25.0107 36.3307 24.904 36.416 24.808 36.512V42H21.704ZM39.3668 45.792L40.1988 42C39.5801 42 39.0628 41.8933 38.6468 41.68C38.2414 41.456 37.9214 41.1573 37.6868 40.784C37.4521 40.4107 37.2814 39.984 37.1748 39.504L35.8468 33.376H39.0628L40.0388 38.88C40.0601 39.008 40.0921 39.1147 40.1348 39.2C40.1881 39.2747 40.2468 39.3333 40.3108 39.376C40.3854 39.4187 40.4548 39.4507 40.5188 39.472C40.5934 39.4933 40.6628 39.504 40.7268 39.504L41.8308 33.376H44.9828L42.7908 44.208L41.9908 45.792H39.3668ZM49.3814 42C48.6454 42 48.0534 41.904 47.6054 41.712C47.168 41.5093 46.8534 41.1733 46.6614 40.704C46.48 40.224 46.4 39.5733 46.4214 38.752L46.5174 35.84H45.1894V33.856L46.6454 33.376L47.0294 30.96H49.4934V33.376H51.2374V35.84H49.4934V38.736C49.4934 38.8747 49.504 38.9973 49.5254 39.104C49.5467 39.2 49.5787 39.2853 49.6214 39.36C49.6747 39.424 49.7387 39.4773 49.8134 39.52C49.888 39.552 49.9734 39.5733 50.0694 39.584L51.1734 39.696V42H49.3814ZM52.2665 42V29.808H55.3705V34.208C55.6158 33.9733 55.9678 33.7547 56.4265 33.552C56.8958 33.3387 57.3652 33.232 57.8345 33.232C58.5172 33.232 59.0505 33.36 59.4345 33.616C59.8185 33.872 60.0905 34.24 60.2505 34.72C60.4105 35.1893 60.4905 35.7493 60.4905 36.4V42H57.3865V36.816C57.3865 36.6027 57.3438 36.4373 57.2585 36.32C57.1838 36.2027 57.0825 36.1227 56.9545 36.08C56.8265 36.0373 56.6878 36.016 56.5385 36.016C56.3998 36.016 56.2558 36.0427 56.1065 36.096C55.9572 36.1387 55.8185 36.1973 55.6905 36.272C55.5625 36.3467 55.4558 36.4267 55.3705 36.512V42H52.2665ZM65.7483 42.08C64.9803 42.08 64.3296 42 63.7963 41.84C63.2736 41.68 62.8523 41.424 62.5323 41.072C62.2123 40.72 61.9829 40.2667 61.8443 39.712C61.7056 39.1467 61.6363 38.464 61.6363 37.664C61.6363 36.8 61.7056 36.0853 61.8443 35.52C61.9936 34.944 62.2283 34.4907 62.5483 34.16C62.8683 33.8187 63.2896 33.5787 63.8123 33.44C64.3456 33.3013 64.9909 33.232 65.7483 33.232C66.5163 33.232 67.1616 33.3067 67.6843 33.456C68.2176 33.6053 68.6389 33.8507 68.9483 34.192C69.2683 34.5227 69.4976 34.976 69.6363 35.552C69.7856 36.1173 69.8603 36.8213 69.8603 37.664C69.8603 38.496 69.7909 39.1947 69.6523 39.76C69.5243 40.3253 69.3003 40.7787 68.9803 41.12C68.6709 41.4613 68.2496 41.7067 67.7163 41.856C67.1936 42.0053 66.5376 42.08 65.7483 42.08ZM65.7483 39.616C65.9509 39.616 66.1163 39.6 66.2443 39.568C66.3723 39.5253 66.4736 39.44 66.5483 39.312C66.6229 39.184 66.6763 38.9867 66.7083 38.72C66.7403 38.4533 66.7563 38.096 66.7563 37.648C66.7563 37.2 66.7403 36.848 66.7083 36.592C66.6763 36.3253 66.6229 36.128 66.5483 36C66.4736 35.872 66.3723 35.792 66.2443 35.76C66.1163 35.7173 65.9509 35.696 65.7483 35.696C65.5456 35.696 65.3803 35.7173 65.2523 35.76C65.1243 35.792 65.0229 35.872 64.9483 36C64.8736 36.128 64.8203 36.3253 64.7883 36.592C64.7563 36.848 64.7403 37.2 64.7403 37.648C64.7403 38.096 64.7563 38.4533 64.7883 38.72C64.8203 38.9867 64.8736 39.184 64.9483 39.312C65.0229 39.44 65.1243 39.5253 65.2523 39.568C65.3803 39.6 65.5456 39.616 65.7483 39.616ZM74.2958 42.096C73.9864 42.096 73.6771 42.0853 73.3678 42.064C73.0584 42.0427 72.7544 42.016 72.4557 41.984C72.1678 41.9413 71.8958 41.888 71.6398 41.824C71.3838 41.76 71.1544 41.6853 70.9518 41.6V39.792H74.9518C75.0904 39.792 75.1918 39.7813 75.2558 39.76C75.3304 39.728 75.3784 39.6907 75.3998 39.648C75.4211 39.5947 75.4318 39.536 75.4318 39.472V39.264C75.4318 39.1573 75.3944 39.0773 75.3198 39.024C75.2558 38.96 75.0958 38.928 74.8398 38.928H73.3998C72.9198 38.928 72.4771 38.848 72.0718 38.688C71.6771 38.528 71.3571 38.2667 71.1118 37.904C70.8771 37.5413 70.7598 37.056 70.7598 36.448V35.92C70.7598 35.3653 70.8664 34.896 71.0798 34.512C71.2931 34.1173 71.6718 33.8187 72.2158 33.616C72.7598 33.4027 73.5224 33.296 74.5038 33.296C74.8984 33.296 75.2984 33.3227 75.7038 33.376C76.1091 33.4187 76.4824 33.4773 76.8238 33.552C77.1758 33.6267 77.4478 33.7067 77.6398 33.792V35.6H73.8478C73.6878 35.6 73.5704 35.6267 73.4958 35.68C73.4211 35.7227 73.3838 35.8027 73.3838 35.92V36.128C73.3838 36.2133 73.3998 36.2827 73.4318 36.336C73.4744 36.3787 73.5438 36.4107 73.6398 36.432C73.7358 36.4533 73.8638 36.464 74.0238 36.464H75.5118C76.4504 36.464 77.1064 36.6773 77.4798 37.104C77.8638 37.5307 78.0558 38.1067 78.0558 38.832V39.712C78.0558 40.288 77.9171 40.752 77.6398 41.104C77.3624 41.456 76.9464 41.712 76.3918 41.872C75.8371 42.0213 75.1384 42.096 74.2958 42.096Z" fill="white"/>
</g>
<defs>
<radialGradient id="paint0_radial_35_213" cx="0" cy="0" r="1" gradientUnits="userSpaceOnUse" gradientTransform="translate(142.424 773.829) scale(159.997 868.553)">
<stop offset="0.36" stop-color="#DAD8DB"/>
<stop offset="1" stop-color="#868686"/>
</radialGradient>
<radialGradient id="paint1_radial_35_213" cx="0" cy="0" r="1" gradientUnits="userSpaceOnUse" gradientTransform="translate(142.432 770.851) scale(76.3582 414.508)">
<stop stop-color="#DAD8DB"/>
<stop offset="0.19" stop-color="#D4D2D5"/>
<stop offset="0.44" stop-color="#C2C0C2"/>
<stop offset="0.75" stop-color="#A4A4A5"/>
<stop offset="1" stop-color="#868686"/>
</radialGradient>
<radialGradient id="paint2_radial_35_213" cx="0" cy="0" r="1" gradientUnits="userSpaceOnUse" gradientTransform="translate(142.432 770.851) scale(76.3582 414.508)">
<stop stop-color="#DAD8DB"/>
<stop offset="0.19" stop-color="#D4D2D5"/>
<stop offset="0.44" stop-color="#C2C0C2"/>
<stop offset="0.75" stop-color="#A4A4A5"/>
<stop offset="1" stop-color="#868686"/>
</radialGradient>
<radialGradient id="paint3_radial_35_213" cx="0" cy="0" r="1" gradientUnits="userSpaceOnUse" gradientTransform="translate(129.793 142.362) scale(156.496 156.318)">
<stop stop-color="#6E7072"/>
<stop offset="1" stop-color="#595C5D"/>
</radialGradient>
<linearGradient id="paint4_linear_35_213" x1="104.713" y1="277.972" x2="94.8247" y2="261.563" gradientUnits="userSpaceOnUse">
<stop stop-color="#494143"/>
<stop offset="0.15" stop-color="#494143" stop-opacity="0.702"/>
<stop offset="0.39" stop-color="#494143" stop-opacity="0.322"/>
<stop offset="0.6" stop-color="#494143" stop-opacity="0.078"/>
<stop offset="0.76" stop-color="#494143" stop-opacity="0"/>
</linearGradient>
<radialGradient id="paint5_radial_35_213" cx="0" cy="0" r="1" gradientUnits="userSpaceOnUse" gradientTransform="translate(483.994 161.348) scale(286.517 286.282)">
<stop stop-color="white"/>
<stop offset="0.09" stop-color="white" stop-opacity="0.949"/>
<stop offset="0.25" stop-color="white" stop-opacity="0.831"/>
<stop offset="0.45" stop-color="white" stop-opacity="0.631"/>
<stop offset="0.7" stop-color="white" stop-opacity="0.361"/>
<stop offset="0.99" stop-color="white" stop-opacity="0.02"/>
<stop offset="1" stop-color="white" stop-opacity="0"/>
</radialGradient>
<clipPath id="clip0_35_213">
<rect width="200" height="285.124" fill="white"/>
</clipPath>
</defs>
</svg>
