<svg width="352" height="345" viewBox="0 0 200 249" fill="none" xmlns="http://www.w3.org/2000/svg">
<g clip-path="url(#clip0_35_293)">
<path d="M154.273 0H5.63696C2.52375 0 0 2.5231 0 5.6355V222.559C0 225.671 2.52375 228.194 5.63696 228.194H154.273C157.386 228.194 159.91 225.671 159.91 222.559V5.6355C159.91 2.5231 157.386 0 154.273 0Z" fill="url(#paint0_radial_35_293)"/>
<path d="M154.034 0.543091H5.87655C2.93103 0.543091 0.543213 2.93029 0.543213 5.87504V222.332C0.543213 225.277 2.93103 227.664 5.87655 227.664H154.034C156.98 227.664 159.368 225.277 159.368 222.332V5.87504C159.368 2.93029 156.98 0.543091 154.034 0.543091Z" fill="url(#paint1_radial_35_293)"/>
<path d="M154.034 0.543091H5.87655C2.93103 0.543091 0.543213 2.93029 0.543213 5.87504V222.332C0.543213 225.277 2.93103 227.664 5.87655 227.664H154.034C156.98 227.664 159.368 225.277 159.368 222.332V5.87504C159.368 2.93029 156.98 0.543091 154.034 0.543091Z" fill="url(#paint2_radial_35_293)"/>
<path d="M153.43 1.88794H6.46929C3.93935 1.88794 1.88843 3.93833 1.88843 6.46761V221.727C1.88843 224.257 3.93935 226.307 6.46929 226.307H153.43C155.96 226.307 158.011 224.257 158.011 221.727V6.46761C158.011 3.93833 155.96 1.88794 153.43 1.88794Z" fill="#231F20"/>
<path d="M149.5 20.2476H10.2323V207.628H149.5V20.2476Z" fill="url(#paint3_radial_35_293)"/>
<path d="M75.5353 219.77C76.0203 220.422 76.6415 220.96 77.3557 221.348C78.07 221.735 78.86 221.962 79.671 222.014C80.482 222.065 81.2944 221.939 82.0517 221.644C82.809 221.35 83.493 220.894 84.0562 220.308C84.6193 219.722 85.0481 219.021 85.3127 218.253C85.5773 217.485 85.6713 216.669 85.5883 215.86C85.5052 215.052 85.2471 214.272 84.8318 213.574C84.4165 212.875 83.854 212.276 83.1834 211.817C83.1834 211.817 83.6673 214.755 82.1564 216.018C80.6455 217.281 79.1353 215.699 77.86 215.699C76.5848 215.699 74.5326 217.032 75.5353 219.77Z" fill="url(#paint4_linear_35_293)"/>
<path opacity="0.3" d="M79.9498 219.428C79.3966 219.428 78.8557 219.264 78.3957 218.956C77.9357 218.649 77.5771 218.212 77.3654 217.701C77.1537 217.19 77.0983 216.628 77.2062 216.086C77.3142 215.543 77.5806 215.045 77.9718 214.654C78.363 214.262 78.8615 213.996 79.4041 213.888C79.9467 213.78 80.5092 213.836 81.0203 214.047C81.5315 214.259 81.9684 214.617 82.2757 215.077C82.5831 215.537 82.7472 216.078 82.7472 216.631C82.7472 217.373 82.4525 218.084 81.9279 218.609C81.4033 219.133 80.6917 219.428 79.9498 219.428ZM79.9498 214.425C79.5133 214.425 79.0865 214.555 78.7235 214.797C78.3606 215.039 78.0776 215.384 77.9106 215.787C77.7435 216.191 77.6998 216.634 77.785 217.062C77.8701 217.49 78.0804 217.884 78.3891 218.192C78.6978 218.501 79.091 218.711 79.5192 218.796C79.9474 218.881 80.3912 218.838 80.7945 218.67C81.1978 218.503 81.5426 218.221 81.7851 217.858C82.0276 217.495 82.1571 217.068 82.1571 216.632C82.1571 216.047 81.9245 215.485 81.5106 215.071C81.0967 214.658 80.5352 214.425 79.9498 214.425Z" fill="white"/>
<path opacity="0.2" d="M113.185 1.88794H10.0792C7.91193 1.90725 5.83898 2.7769 4.30693 4.30954C2.77488 5.84218 1.90634 7.91515 1.88843 10.0819V218.113C1.88808 219.188 2.09967 220.253 2.5111 221.247C2.92254 222.241 3.52577 223.145 4.28635 223.905C5.04693 224.666 5.94997 225.27 6.94391 225.682C7.93785 226.094 9.00322 226.306 10.0792 226.306H46.6667L113.185 1.88794Z" fill="url(#paint5_radial_35_293)"/>
<path d="M149.257 20.2007H10.561V61.2646H149.257V20.2007Z" fill="#C5C6CB"/>
<path d="M149.257 20.2007H10.561V36.7805H149.257V20.2007Z" fill="#029FA0"/>
<path d="M133.333 25.1499H145.875" stroke="white" stroke-width="2"/>
<path d="M133.333 28.4495H145.875" stroke="white" stroke-width="2"/>
<path d="M133.333 31.7488H145.875" stroke="white" stroke-width="2"/>
<path d="M133.333 42.8516H16.5511V44.7923H133.333V42.8516Z" fill="white"/>
<path d="M133.333 53.6072H16.5511V55.5479H133.333V53.6072Z" fill="white"/>
<path d="M119.521 48.0291H16.5511V49.9698H119.521V48.0291Z" fill="white"/>
<path d="M17.528 33V26.532H19.472L19.856 27.156C20.112 26.956 20.384 26.784 20.672 26.64C20.968 26.496 21.36 26.424 21.848 26.424C22.248 26.424 22.576 26.508 22.832 26.676C23.096 26.836 23.296 27.044 23.432 27.3C23.6 27.172 23.792 27.04 24.008 26.904C24.224 26.768 24.456 26.656 24.704 26.568C24.96 26.472 25.216 26.424 25.472 26.424C26.024 26.424 26.448 26.524 26.744 26.724C27.048 26.916 27.256 27.2 27.368 27.576C27.48 27.944 27.536 28.392 27.536 28.92V33H25.208V29.136C25.208 28.968 25.18 28.84 25.124 28.752C25.068 28.664 24.992 28.604 24.896 28.572C24.808 28.532 24.7 28.512 24.572 28.512C24.412 28.512 24.252 28.548 24.092 28.62C23.932 28.692 23.8 28.78 23.696 28.884C23.696 28.932 23.696 28.984 23.696 29.04C23.696 29.088 23.696 29.136 23.696 29.184V33H21.368V29.136C21.368 28.968 21.34 28.84 21.284 28.752C21.228 28.664 21.152 28.604 21.056 28.572C20.968 28.532 20.86 28.512 20.732 28.512C20.628 28.512 20.52 28.528 20.408 28.56C20.296 28.592 20.192 28.636 20.096 28.692C20.008 28.748 19.928 28.812 19.856 28.884V33H17.528ZM30.7751 35.844L31.3991 33C30.9351 33 30.5471 32.92 30.2351 32.76C29.9311 32.592 29.6911 32.368 29.5151 32.088C29.3391 31.808 29.2111 31.488 29.1311 31.128L28.1351 26.532H30.5471L31.2791 30.66C31.2951 30.756 31.3191 30.836 31.3511 30.9C31.3911 30.956 31.4351 31 31.4831 31.032C31.5391 31.064 31.5911 31.088 31.6391 31.104C31.6951 31.12 31.7471 31.128 31.7951 31.128L32.6231 26.532H34.9871L33.3431 34.656L32.7431 35.844H30.7751ZM38.286 33C37.734 33 37.29 32.928 36.954 32.784C36.626 32.632 36.39 32.38 36.246 32.028C36.11 31.668 36.05 31.18 36.066 30.564L36.138 28.38H35.142V26.892L36.234 26.532L36.522 24.72H38.37V26.532H39.678V28.38H38.37V30.552C38.37 30.656 38.378 30.748 38.394 30.828C38.41 30.9 38.434 30.964 38.466 31.02C38.506 31.068 38.554 31.108 38.61 31.14C38.666 31.164 38.73 31.18 38.802 31.188L39.63 31.272V33H38.286ZM40.4499 33V23.856H42.7779V27.156C42.9619 26.98 43.2259 26.816 43.5699 26.664C43.9219 26.504 44.2739 26.424 44.6259 26.424C45.1379 26.424 45.5379 26.52 45.8259 26.712C46.1139 26.904 46.3179 27.18 46.4379 27.54C46.5579 27.892 46.6179 28.312 46.6179 28.8V33H44.2899V29.112C44.2899 28.952 44.2579 28.828 44.1939 28.74C44.1379 28.652 44.0619 28.592 43.9659 28.56C43.8699 28.528 43.7659 28.512 43.6539 28.512C43.5499 28.512 43.4419 28.532 43.3299 28.572C43.2179 28.604 43.1139 28.648 43.0179 28.704C42.9219 28.76 42.8419 28.82 42.7779 28.884V33H40.4499ZM50.5612 33.06C49.9852 33.06 49.4972 33 49.0972 32.88C48.7052 32.76 48.3892 32.568 48.1492 32.304C47.9092 32.04 47.7372 31.7 47.6332 31.284C47.5292 30.86 47.4772 30.348 47.4772 29.748C47.4772 29.1 47.5292 28.564 47.6332 28.14C47.7452 27.708 47.9212 27.368 48.1612 27.12C48.4012 26.864 48.7172 26.684 49.1092 26.58C49.5092 26.476 49.9932 26.424 50.5612 26.424C51.1372 26.424 51.6212 26.48 52.0132 26.592C52.4132 26.704 52.7292 26.888 52.9612 27.144C53.2012 27.392 53.3732 27.732 53.4772 28.164C53.5892 28.588 53.6452 29.116 53.6452 29.748C53.6452 30.372 53.5932 30.896 53.4892 31.32C53.3932 31.744 53.2252 32.084 52.9852 32.34C52.7532 32.596 52.4372 32.78 52.0372 32.892C51.6452 33.004 51.1532 33.06 50.5612 33.06ZM50.5612 31.212C50.7132 31.212 50.8372 31.2 50.9332 31.176C51.0292 31.144 51.1052 31.08 51.1612 30.984C51.2172 30.888 51.2572 30.74 51.2812 30.54C51.3052 30.34 51.3172 30.072 51.3172 29.736C51.3172 29.4 51.3052 29.136 51.2812 28.944C51.2572 28.744 51.2172 28.596 51.1612 28.5C51.1052 28.404 51.0292 28.344 50.9332 28.32C50.8372 28.288 50.7132 28.272 50.5612 28.272C50.4092 28.272 50.2852 28.288 50.1892 28.32C50.0932 28.344 50.0172 28.404 49.9612 28.5C49.9052 28.596 49.8652 28.744 49.8412 28.944C49.8172 29.136 49.8052 29.4 49.8052 29.736C49.8052 30.072 49.8172 30.34 49.8412 30.54C49.8652 30.74 49.9052 30.888 49.9612 30.984C50.0172 31.08 50.0932 31.144 50.1892 31.176C50.2852 31.2 50.4092 31.212 50.5612 31.212ZM56.9718 33.072C56.7398 33.072 56.5078 33.064 56.2758 33.048C56.0438 33.032 55.8158 33.012 55.5918 32.988C55.3758 32.956 55.1718 32.916 54.9798 32.868C54.7878 32.82 54.6158 32.764 54.4638 32.7V31.344H57.4638C57.5678 31.344 57.6438 31.336 57.6918 31.32C57.7478 31.296 57.7838 31.268 57.7998 31.236C57.8158 31.196 57.8238 31.152 57.8238 31.104V30.948C57.8238 30.868 57.7958 30.808 57.7398 30.768C57.6918 30.72 57.5718 30.696 57.3798 30.696H56.2998C55.9398 30.696 55.6078 30.636 55.3038 30.516C55.0078 30.396 54.7678 30.2 54.5838 29.928C54.4078 29.656 54.3198 29.292 54.3198 28.836V28.44C54.3198 28.024 54.3998 27.672 54.5598 27.384C54.7198 27.088 55.0038 26.864 55.4118 26.712C55.8198 26.552 56.3918 26.472 57.1278 26.472C57.4238 26.472 57.7238 26.492 58.0278 26.532C58.3318 26.564 58.6118 26.608 58.8678 26.664C59.1318 26.72 59.3358 26.78 59.4798 26.844V28.2H56.6358C56.5158 28.2 56.4278 28.22 56.3718 28.26C56.3158 28.292 56.2878 28.352 56.2878 28.44V28.596C56.2878 28.66 56.2998 28.712 56.3238 28.752C56.3558 28.784 56.4078 28.808 56.4798 28.824C56.5518 28.84 56.6478 28.848 56.7678 28.848H57.8838C58.5878 28.848 59.0798 29.008 59.3598 29.328C59.6478 29.648 59.7918 30.08 59.7918 30.624V31.284C59.7918 31.716 59.6878 32.064 59.4798 32.328C59.2718 32.592 58.9598 32.784 58.5438 32.904C58.1278 33.016 57.6038 33.072 56.9718 33.072Z" fill="white"/>
<path d="M149.406 61.1003H10.561V207.522H149.406V61.1003Z" fill="white"/>
<path d="M139.81 152.687H123.072C120.816 152.687 118.988 154.515 118.988 156.77V156.77C118.988 159.025 120.816 160.853 123.072 160.853H139.81C142.066 160.853 143.894 159.025 143.894 156.77V156.77C143.894 154.515 142.066 152.687 139.81 152.687Z" fill="#C5C6CB"/>
<path d="M139.81 169.486H123.072C120.816 169.486 118.988 171.314 118.988 173.569V173.57C118.988 175.824 120.816 177.652 123.072 177.652H139.81C142.066 177.652 143.894 175.824 143.894 173.57V173.569C143.894 171.314 142.066 169.486 139.81 169.486Z" fill="#C5C6CB"/>
<path d="M139.81 185.927H123.072C120.816 185.927 118.988 187.755 118.988 190.01V190.01C118.988 192.265 120.816 194.093 123.072 194.093H139.81C142.066 194.093 143.894 192.265 143.894 190.01V190.01C143.894 187.755 142.066 185.927 139.81 185.927Z" fill="#C5C6CB"/>
<path d="M139.81 69.5964H123.072C120.816 69.5964 118.988 71.4244 118.988 73.6792V73.6799C118.988 75.9347 120.816 77.7626 123.072 77.7626H139.81C142.066 77.7626 143.894 75.9347 143.894 73.6799V73.6792C143.894 71.4244 142.066 69.5964 139.81 69.5964Z" fill="#1CDD29"/>
<path d="M139.81 86.0376H123.072C120.816 86.0376 118.988 87.8655 118.988 90.1204V90.121C118.988 92.3759 120.816 94.2038 123.072 94.2038H139.81C142.066 94.2038 143.894 92.3759 143.894 90.121V90.1204C143.894 87.8655 142.066 86.0376 139.81 86.0376Z" fill="#C5C6CB"/>
<path d="M139.81 102.837H123.072C120.816 102.837 118.988 104.665 118.988 106.919V106.92C118.988 109.175 120.816 111.003 123.072 111.003H139.81C142.066 111.003 143.894 109.175 143.894 106.92V106.919C143.894 104.665 142.066 102.837 139.81 102.837Z" fill="#C5C6CB"/>
<path d="M139.81 119.277H123.072C120.816 119.277 118.988 121.105 118.988 123.36V123.361C118.988 125.616 120.816 127.444 123.072 127.444H139.81C142.066 127.444 143.894 125.616 143.894 123.361V123.36C143.894 121.105 142.066 119.277 139.81 119.277Z" fill="#C5C6CB"/>
<path d="M139.81 136.434H123.072C120.816 136.434 118.988 138.262 118.988 140.517V140.517C118.988 142.772 120.816 144.6 123.072 144.6H139.81C142.066 144.6 143.894 142.772 143.894 140.517V140.517C143.894 138.262 142.066 136.434 139.81 136.434Z" fill="#C5C6CB"/>
<path d="M77.3907 153.725H41.0277V155.358H77.3907V153.725Z" fill="#C5C6CB"/>
<path d="M71.4132 156.852H41.0277V158.485H71.4132V156.852Z" fill="#C5C6CB"/>
<path d="M109.774 153.725H85.8634V155.358H109.774V153.725Z" fill="#C5C6CB"/>
<path d="M77.3907 170.708H41.0277V172.341H77.3907V170.708Z" fill="#C5C6CB"/>
<path d="M71.4132 173.834H41.0277V175.467H71.4132V173.834Z" fill="#C5C6CB"/>
<path d="M109.774 170.708H85.8634V172.341H109.774V170.708Z" fill="#C5C6CB"/>
<path d="M77.3907 187.329H41.0277V188.962H77.3907V187.329Z" fill="#C5C6CB"/>
<path d="M71.4132 190.456H41.0277V192.089H71.4132V190.456Z" fill="#C5C6CB"/>
<path d="M109.774 187.329H85.8634V188.962H109.774V187.329Z" fill="#C5C6CB"/>
<path d="M77.3907 70.4543H41.0277V72.0876H77.3907V70.4543Z" fill="#C5C6CB"/>
<path d="M71.4132 73.1765H41.0277V74.8098H71.4132V73.1765Z" fill="#C5C6CB"/>
<path d="M109.774 70.4543H85.8634V72.0876H109.774V70.4543Z" fill="#C5C6CB"/>
<path d="M77.3907 87.0757H41.0277V88.7089H77.3907V87.0757Z" fill="#C5C6CB"/>
<path d="M71.4132 90.2024H41.0277V91.8356H71.4132V90.2024Z" fill="#C5C6CB"/>
<path d="M109.774 87.0757H85.8634V88.7089H109.774V87.0757Z" fill="#C5C6CB"/>
<path d="M77.3907 104.058H41.0277V105.691H77.3907V104.058Z" fill="#C5C6CB"/>
<path d="M71.4132 107.185H41.0277V108.818H71.4132V107.185Z" fill="#C5C6CB"/>
<path d="M109.774 104.058H85.8634V105.691H109.774V104.058Z" fill="#C5C6CB"/>
<path d="M77.3907 120.68H41.0277V122.313H77.3907V120.68Z" fill="#C5C6CB"/>
<path d="M71.4132 123.806H41.0277V125.439H71.4132V123.806Z" fill="#C5C6CB"/>
<path d="M109.774 120.68H85.8634V122.313H109.774V120.68Z" fill="#C5C6CB"/>
<path d="M77.3907 136.087H41.0277V137.721H77.3907V136.087Z" fill="#C5C6CB"/>
<path d="M71.4132 139.469H41.0277V141.103H71.4132V139.469Z" fill="#C5C6CB"/>
<path d="M109.774 136.747H85.8634V138.381H109.774V136.747Z" fill="#C5C6CB"/>
<path d="M35.6435 69.842H15.8416V82.3801H35.6435V69.842Z" fill="#92A1FF"/>
<path d="M35.6435 119.334H15.8416V131.872H35.6435V119.334Z" fill="#ACACAC"/>
<path d="M35.6435 86.9993H15.8416V99.5373H35.6435V86.9993Z" fill="#92A1FF"/>
<path d="M35.6435 136.491H15.8416V149.029H35.6435V136.491Z" fill="#ACACAC"/>
<path d="M35.6435 169.486H15.8416V182.024H35.6435V169.486Z" fill="#ACACAC"/>
<path d="M35.6435 103.497H15.8416V116.035H35.6435V103.497Z" fill="#ACACAC"/>
<path d="M35.6435 152.989H15.8416V165.527H35.6435V152.989Z" fill="#ACACAC"/>
<path d="M35.6435 186.643H15.8416V199.181H35.6435V186.643Z" fill="#ACACAC"/>
<path d="M10.561 20.2007H149.175V207.76H10.561V20.2007Z" fill="black" fill-opacity="0.14"/>
<g filter="url(#filter0_d_35_293)">
<path d="M143.894 53.231H15.8416V102.063H143.894V53.231Z" fill="white"/>
</g>
<path d="M143.894 53.231H15.8416V60.4898H143.894V53.231Z" fill="#495BCF"/>
<path d="M27.3927 73.3577H133.003" stroke="#42455D" stroke-width="2"/>
<path d="M47.8547 66.7588H112.541" stroke="#42455D" stroke-width="4"/>
<path d="M22.7722 75.9973H136.964" stroke="#42455D" stroke-width="2"/>
<path d="M24.7524 78.637H134.983" stroke="#42455D" stroke-width="2"/>
<path d="M25.4125 81.2766H134.983" stroke="#42455D" stroke-width="2"/>
<path d="M89.7689 89.2798H69.3069C66.7551 89.2798 64.6864 91.3479 64.6864 93.899C64.6864 96.4502 66.7551 98.5183 69.3069 98.5183H89.7689C92.3207 98.5183 94.3894 96.4502 94.3894 93.899C94.3894 91.3479 92.3207 89.2798 89.7689 89.2798Z" fill="#92A1FF"/>
<path d="M195.162 97.126H132.167C129.495 97.126 127.329 99.2916 127.329 101.963V243.943C127.329 246.615 129.495 248.78 132.167 248.78H195.162C197.834 248.78 200 246.615 200 243.943V101.963C200 99.2916 197.834 97.126 195.162 97.126Z" fill="url(#paint6_radial_35_293)"/>
<path d="M194.886 97.7185H132.456C129.952 97.7185 127.922 99.7482 127.922 102.252V243.668C127.922 246.171 129.952 248.201 132.456 248.201H194.886C197.39 248.201 199.421 246.171 199.421 243.668V102.252C199.421 99.7482 197.39 97.7185 194.886 97.7185Z" fill="url(#paint7_radial_35_293)"/>
<path d="M194.886 97.7185H132.456C129.952 97.7185 127.922 99.7482 127.922 102.252V243.668C127.922 246.171 129.952 248.201 132.456 248.201H194.886C197.39 248.201 199.421 246.171 199.421 243.668V102.252C199.421 99.7482 197.39 97.7185 194.886 97.7185Z" fill="url(#paint8_radial_35_293)"/>
<path d="M194.156 99.1868H133.172C131.083 99.1868 129.39 100.88 129.39 102.968V242.938C129.39 245.027 131.083 246.72 133.172 246.72H194.156C196.245 246.72 197.939 245.027 197.939 242.938V102.968C197.939 100.88 196.245 99.1868 194.156 99.1868Z" fill="#231F20"/>
<path d="M193.868 118.132H133.126V228.122H193.868V118.132Z" fill="url(#paint9_radial_35_293)"/>
<path d="M159.036 240.409C159.535 241.07 160.17 241.615 160.9 242.006C161.629 242.398 162.435 242.626 163.261 242.676C164.088 242.725 164.915 242.595 165.686 242.294C166.457 241.992 167.154 241.528 167.727 240.931C168.301 240.335 168.739 239.621 169.01 238.839C169.28 238.056 169.378 237.225 169.296 236.401C169.215 235.578 168.955 234.782 168.535 234.068C168.116 233.355 167.546 232.741 166.866 232.269C166.866 232.269 167.356 235.27 165.81 236.571C164.264 237.872 162.718 236.249 161.417 236.249C160.116 236.249 158.067 237.601 159.036 240.409Z" fill="url(#paint10_linear_35_293)"/>
<path d="M163.4 108.782C163.47 108.88 163.563 108.96 163.671 109.014C163.778 109.067 163.898 109.094 164.019 109.091C164.186 109.093 164.349 109.041 164.484 108.943C164.619 108.845 164.719 108.706 164.768 108.546C164.818 108.387 164.814 108.216 164.758 108.058C164.702 107.901 164.596 107.766 164.457 107.674C164.457 107.674 164.523 108.086 164.315 108.268C164.107 108.449 163.89 108.268 163.721 108.268C163.663 108.274 163.607 108.294 163.557 108.325C163.508 108.356 163.466 108.398 163.435 108.447C163.404 108.497 163.384 108.553 163.378 108.611C163.372 108.669 163.379 108.728 163.399 108.783L163.4 108.782Z" fill="url(#paint11_linear_35_293)"/>
<path d="M160.321 108.782C160.419 108.913 160.556 109.009 160.711 109.058C160.867 109.108 161.034 109.107 161.19 109.056C161.345 109.004 161.48 108.906 161.576 108.774C161.672 108.642 161.724 108.483 161.725 108.32C161.724 108.194 161.694 108.07 161.635 107.958C161.577 107.846 161.493 107.749 161.391 107.676C161.394 107.883 161.345 108.087 161.249 108.27C161.107 108.45 160.824 108.27 160.644 108.27C160.585 108.276 160.529 108.295 160.48 108.327C160.43 108.358 160.388 108.4 160.357 108.449C160.326 108.499 160.307 108.555 160.301 108.613C160.295 108.671 160.302 108.73 160.321 108.785V108.782Z" fill="url(#paint12_linear_35_293)"/>
<path d="M166.131 108.782C166.278 108.932 166.479 109.018 166.689 109.02C166.899 109.022 167.102 108.941 167.252 108.794C167.402 108.648 167.488 108.447 167.49 108.237C167.493 108.027 167.412 107.825 167.265 107.674C167.265 107.674 167.331 108.087 167.123 108.268C166.915 108.45 166.698 108.268 166.517 108.268C166.455 108.267 166.393 108.282 166.336 108.309C166.28 108.337 166.231 108.378 166.193 108.428C166.156 108.478 166.13 108.536 166.119 108.598C166.109 108.66 166.112 108.724 166.131 108.784L166.131 108.782Z" fill="url(#paint13_linear_35_293)"/>
<path opacity="0.3" d="M163.606 240.087C162.939 240.085 162.292 239.851 161.778 239.426C161.263 239.001 160.912 238.411 160.784 237.756C160.656 237.101 160.758 236.422 161.075 235.834C161.391 235.247 161.902 234.787 162.519 234.533C163.136 234.28 163.823 234.248 164.461 234.443C165.099 234.639 165.65 235.049 166.019 235.605C166.389 236.161 166.554 236.827 166.487 237.491C166.42 238.155 166.125 238.775 165.652 239.246C165.383 239.514 165.064 239.726 164.713 239.87C164.362 240.015 163.986 240.088 163.606 240.087ZM163.606 234.935C163.087 234.938 162.585 235.12 162.185 235.452C161.786 235.783 161.513 236.242 161.414 236.751C161.316 237.261 161.396 237.789 161.643 238.245C161.89 238.702 162.287 239.059 162.768 239.255C163.248 239.452 163.782 239.476 164.278 239.323C164.774 239.171 165.202 238.851 165.488 238.418C165.775 237.986 165.903 237.467 165.85 236.951C165.798 236.435 165.568 235.953 165.199 235.587C164.99 235.379 164.741 235.214 164.468 235.102C164.194 234.99 163.901 234.934 163.606 234.935Z" fill="white"/>
<path opacity="0.2" d="M136.772 99.1868C134.815 99.1897 132.939 99.9682 131.555 101.351C130.172 102.735 129.393 104.61 129.39 106.566V239.337C129.392 241.294 130.171 243.17 131.554 244.554C132.938 245.938 134.814 246.717 136.772 246.72H138.488L182.248 99.1868H136.772Z" fill="url(#paint14_radial_35_293)"/>
<path d="M194.281 118.014H133.269V146.54H194.281V118.014Z" fill="#C5C6CB"/>
<path d="M194.281 118.014H133.269V130.635H194.281V118.014Z" fill="#029FA0"/>
<path d="M175.716 134.066H136.619V135.469H175.716V134.066Z" fill="white"/>
<path d="M184.144 141.841H136.619V143.243H184.144V141.841Z" fill="white"/>
<path d="M184.804 137.809H136.619V139.211H184.804V137.809Z" fill="white"/>
<path d="M183.434 121.644H191.355" stroke="white"/>
<path d="M183.434 123.953H191.355" stroke="white"/>
<path d="M183.434 126.263H191.355" stroke="white"/>
<path d="M137.352 127V122.688H138.648L138.904 123.104C139.075 122.971 139.256 122.856 139.448 122.76C139.645 122.664 139.907 122.616 140.232 122.616C140.499 122.616 140.717 122.672 140.888 122.784C141.064 122.891 141.197 123.029 141.288 123.2C141.4 123.115 141.528 123.027 141.672 122.936C141.816 122.845 141.971 122.771 142.136 122.712C142.307 122.648 142.477 122.616 142.648 122.616C143.016 122.616 143.299 122.683 143.496 122.816C143.699 122.944 143.837 123.133 143.912 123.384C143.987 123.629 144.024 123.928 144.024 124.28V127H142.472V124.424C142.472 124.312 142.453 124.227 142.416 124.168C142.379 124.109 142.328 124.069 142.264 124.048C142.205 124.021 142.133 124.008 142.048 124.008C141.941 124.008 141.835 124.032 141.728 124.08C141.621 124.128 141.533 124.187 141.464 124.256C141.464 124.288 141.464 124.323 141.464 124.36C141.464 124.392 141.464 124.424 141.464 124.456V127H139.912V124.424C139.912 124.312 139.893 124.227 139.856 124.168C139.819 124.109 139.768 124.069 139.704 124.048C139.645 124.021 139.573 124.008 139.488 124.008C139.419 124.008 139.347 124.019 139.272 124.04C139.197 124.061 139.128 124.091 139.064 124.128C139.005 124.165 138.952 124.208 138.904 124.256V127H137.352ZM146.183 128.896L146.599 127C146.29 127 146.031 126.947 145.823 126.84C145.621 126.728 145.461 126.579 145.343 126.392C145.226 126.205 145.141 125.992 145.087 125.752L144.423 122.688H146.031L146.519 125.44C146.53 125.504 146.546 125.557 146.567 125.6C146.594 125.637 146.623 125.667 146.655 125.688C146.693 125.709 146.727 125.725 146.759 125.736C146.797 125.747 146.831 125.752 146.863 125.752L147.415 122.688H148.991L147.895 128.104L147.495 128.896H146.183ZM151.191 127C150.823 127 150.527 126.952 150.303 126.856C150.084 126.755 149.927 126.587 149.831 126.352C149.74 126.112 149.7 125.787 149.711 125.376L149.759 123.92H149.095V122.928L149.823 122.688L150.015 121.48H151.247V122.688H152.119V123.92H151.247V125.368C151.247 125.437 151.252 125.499 151.263 125.552C151.273 125.6 151.289 125.643 151.311 125.68C151.337 125.712 151.369 125.739 151.407 125.76C151.444 125.776 151.487 125.787 151.535 125.792L152.087 125.848V127H151.191ZM152.633 127V120.904H154.185V123.104C154.308 122.987 154.484 122.877 154.713 122.776C154.948 122.669 155.183 122.616 155.417 122.616C155.759 122.616 156.025 122.68 156.217 122.808C156.409 122.936 156.545 123.12 156.625 123.36C156.705 123.595 156.745 123.875 156.745 124.2V127H155.193V124.408C155.193 124.301 155.172 124.219 155.129 124.16C155.092 124.101 155.041 124.061 154.977 124.04C154.913 124.019 154.844 124.008 154.769 124.008C154.7 124.008 154.628 124.021 154.553 124.048C154.479 124.069 154.409 124.099 154.345 124.136C154.281 124.173 154.228 124.213 154.185 124.256V127H152.633ZM159.374 127.04C158.99 127.04 158.665 127 158.398 126.92C158.137 126.84 157.926 126.712 157.766 126.536C157.606 126.36 157.491 126.133 157.422 125.856C157.353 125.573 157.318 125.232 157.318 124.832C157.318 124.4 157.353 124.043 157.422 123.76C157.497 123.472 157.614 123.245 157.774 123.08C157.934 122.909 158.145 122.789 158.406 122.72C158.673 122.651 158.995 122.616 159.374 122.616C159.758 122.616 160.081 122.653 160.342 122.728C160.609 122.803 160.819 122.925 160.974 123.096C161.134 123.261 161.249 123.488 161.318 123.776C161.393 124.059 161.43 124.411 161.43 124.832C161.43 125.248 161.395 125.597 161.326 125.88C161.262 126.163 161.15 126.389 160.99 126.56C160.835 126.731 160.625 126.853 160.358 126.928C160.097 127.003 159.769 127.04 159.374 127.04ZM159.374 125.808C159.475 125.808 159.558 125.8 159.622 125.784C159.686 125.763 159.737 125.72 159.774 125.656C159.811 125.592 159.838 125.493 159.854 125.36C159.87 125.227 159.878 125.048 159.878 124.824C159.878 124.6 159.87 124.424 159.854 124.296C159.838 124.163 159.811 124.064 159.774 124C159.737 123.936 159.686 123.896 159.622 123.88C159.558 123.859 159.475 123.848 159.374 123.848C159.273 123.848 159.19 123.859 159.126 123.88C159.062 123.896 159.011 123.936 158.974 124C158.937 124.064 158.91 124.163 158.894 124.296C158.878 124.424 158.87 124.6 158.87 124.824C158.87 125.048 158.878 125.227 158.894 125.36C158.91 125.493 158.937 125.592 158.974 125.656C159.011 125.72 159.062 125.763 159.126 125.784C159.19 125.8 159.273 125.808 159.374 125.808ZM163.648 127.048C163.493 127.048 163.339 127.043 163.184 127.032C163.029 127.021 162.877 127.008 162.728 126.992C162.584 126.971 162.448 126.944 162.32 126.912C162.192 126.88 162.077 126.843 161.976 126.8V125.896H163.976C164.045 125.896 164.096 125.891 164.128 125.88C164.165 125.864 164.189 125.845 164.2 125.824C164.211 125.797 164.216 125.768 164.216 125.736V125.632C164.216 125.579 164.197 125.539 164.16 125.512C164.128 125.48 164.048 125.464 163.92 125.464H163.2C162.96 125.464 162.739 125.424 162.536 125.344C162.339 125.264 162.179 125.133 162.056 124.952C161.939 124.771 161.88 124.528 161.88 124.224V123.96C161.88 123.683 161.933 123.448 162.04 123.256C162.147 123.059 162.336 122.909 162.608 122.808C162.88 122.701 163.261 122.648 163.752 122.648C163.949 122.648 164.149 122.661 164.352 122.688C164.555 122.709 164.741 122.739 164.912 122.776C165.088 122.813 165.224 122.853 165.32 122.896V123.8H163.424C163.344 123.8 163.285 123.813 163.248 123.84C163.211 123.861 163.192 123.901 163.192 123.96V124.064C163.192 124.107 163.2 124.141 163.216 124.168C163.237 124.189 163.272 124.205 163.32 124.216C163.368 124.227 163.432 124.232 163.512 124.232H164.256C164.725 124.232 165.053 124.339 165.24 124.552C165.432 124.765 165.528 125.053 165.528 125.416V125.856C165.528 126.144 165.459 126.376 165.32 126.552C165.181 126.728 164.973 126.856 164.696 126.936C164.419 127.011 164.069 127.048 163.648 127.048Z" fill="white"/>
<path d="M194.226 146.227H133.269V227.979H194.226V146.227Z" fill="white"/>
<path d="M173.379 156.703H164.799C163.523 156.703 162.488 157.737 162.488 159.012C162.488 160.288 163.523 161.322 164.799 161.322H173.379C174.655 161.322 175.69 160.288 175.69 159.012C175.69 157.737 174.655 156.703 173.379 156.703Z" fill="#1CDD29"/>
<path d="M173.379 156.703H164.799C163.523 156.703 162.488 157.737 162.488 159.012C162.488 160.288 163.523 161.322 164.799 161.322H173.379C174.655 161.322 175.69 160.288 175.69 159.012C175.69 157.737 174.655 156.703 173.379 156.703Z" fill="#1CDD29"/>
<path d="M173.379 172.335H164.799C163.523 172.335 162.488 173.369 162.488 174.645C162.488 175.92 163.523 176.954 164.799 176.954H173.379C174.655 176.954 175.69 175.92 175.69 174.645C175.69 173.369 174.655 172.335 173.379 172.335Z" fill="#C5C6CB"/>
<path d="M173.379 188.308H164.799C163.523 188.308 162.488 189.342 162.488 190.617C162.488 191.893 163.523 192.927 164.799 192.927H173.379C174.655 192.927 175.69 191.893 175.69 190.617C175.69 189.342 174.655 188.308 173.379 188.308Z" fill="#C5C6CB"/>
<path d="M173.379 203.94H164.799C163.523 203.94 162.488 204.974 162.488 206.25C162.488 207.525 163.523 208.559 164.799 208.559H173.379C174.655 208.559 175.69 207.525 175.69 206.25C175.69 204.974 174.655 203.94 173.379 203.94Z" fill="#C5C6CB"/>
<path d="M173.379 220.252H164.799C163.523 220.252 162.488 221.286 162.488 222.562C162.488 223.837 163.523 224.871 164.799 224.871H173.379C174.655 224.871 175.69 223.837 175.69 222.562C175.69 221.286 174.655 220.252 173.379 220.252Z" fill="#C5C6CB"/>
<path d="M190.533 149.642H161.756V151.275H190.533V149.642Z" fill="#C5C6CB"/>
<path d="M185.803 152.364H161.756V153.997H185.803V152.364Z" fill="#C5C6CB"/>
<path d="M190.533 165.543H161.756V167.177H190.533V165.543Z" fill="#C5C6CB"/>
<path d="M185.803 168.534H161.756V170.167H185.803V168.534Z" fill="#C5C6CB"/>
<path d="M190.533 181.79H161.756V183.423H190.533V181.79Z" fill="#C5C6CB"/>
<path d="M185.803 184.781H161.756V186.414H185.803V184.781Z" fill="#C5C6CB"/>
<path d="M190.533 197.691H161.756V199.325H190.533V197.691Z" fill="#C5C6CB"/>
<path d="M185.803 200.682H161.756V202.315H185.803V200.682Z" fill="#C5C6CB"/>
<path d="M190.533 212.284H161.756V213.918H190.533V212.284Z" fill="#C5C6CB"/>
<path d="M185.803 215.666H161.756V217.299H185.803V215.666Z" fill="#C5C6CB"/>
<path d="M156.372 149.029H136.57V161.567H156.372V149.029Z" fill="#ACACAC"/>
<path d="M156.372 196.542H136.57V209.08H156.372V196.542Z" fill="#ACACAC"/>
<path d="M156.372 165.527H136.57V178.065H156.372V165.527Z" fill="#ACACAC"/>
<path d="M156.372 212.379H136.57V224.917H156.372V212.379Z" fill="#ACACAC"/>
<path d="M156.372 181.364H136.57V193.902H156.372V181.364Z" fill="#ACACAC"/>
<path d="M133.302 117.756H194.5V227.975H133.302V117.756Z" fill="black" fill-opacity="0.14"/>
<g filter="url(#filter1_d_35_293)">
<path d="M189.439 140.451H137.294V182.024H189.439V140.451Z" fill="white"/>
</g>
<path d="M189.439 140.451H137.294V146.39H189.439V140.451Z" fill="#495BCF"/>
<path d="M146.732 157.916H181.417" stroke="#42455D" stroke-width="2"/>
<path d="M146.072 151.977H180.757" stroke="#42455D" stroke-width="3"/>
<path d="M143.066 160.315H184.56" stroke="#42455D" stroke-width="2"/>
<path d="M144.637 162.716H182.988" stroke="#42455D" stroke-width="2"/>
<path d="M145.161 165.115H182.988" stroke="#42455D" stroke-width="2"/>
<path d="M171.483 171.072H155.246C153.222 171.072 151.58 172.713 151.58 174.737V174.737C151.58 176.762 153.222 178.403 155.246 178.403H171.483C173.508 178.403 175.149 176.762 175.149 174.737V174.737C175.149 172.713 173.508 171.072 171.483 171.072Z" fill="#92A1FF"/>
</g>
<defs>
<filter id="filter0_d_35_293" x="9.84155" y="50.231" width="140.053" height="60.8323" filterUnits="userSpaceOnUse" color-interpolation-filters="sRGB">
<feFlood flood-opacity="0" result="BackgroundImageFix"/>
<feColorMatrix in="SourceAlpha" type="matrix" values="0 0 0 0 0 0 0 0 0 0 0 0 0 0 0 0 0 0 127 0" result="hardAlpha"/>
<feOffset dy="3"/>
<feGaussianBlur stdDeviation="3"/>
<feColorMatrix type="matrix" values="0 0 0 0 0 0 0 0 0 0 0 0 0 0 0 0 0 0 0.161 0"/>
<feBlend mode="normal" in2="BackgroundImageFix" result="effect1_dropShadow_35_293"/>
<feBlend mode="normal" in="SourceGraphic" in2="effect1_dropShadow_35_293" result="shape"/>
</filter>
<filter id="filter1_d_35_293" x="131.294" y="137.451" width="64.1451" height="53.5735" filterUnits="userSpaceOnUse" color-interpolation-filters="sRGB">
<feFlood flood-opacity="0" result="BackgroundImageFix"/>
<feColorMatrix in="SourceAlpha" type="matrix" values="0 0 0 0 0 0 0 0 0 0 0 0 0 0 0 0 0 0 127 0" result="hardAlpha"/>
<feOffset dy="3"/>
<feGaussianBlur stdDeviation="3"/>
<feColorMatrix type="matrix" values="0 0 0 0 0 0 0 0 0 0 0 0 0 0 0 0 0 0 0.161 0"/>
<feBlend mode="normal" in2="BackgroundImageFix" result="effect1_dropShadow_35_293"/>
<feBlend mode="normal" in="SourceGraphic" in2="effect1_dropShadow_35_293" result="shape"/>
</filter>
<radialGradient id="paint0_radial_35_293" cx="0" cy="0" r="1" gradientUnits="userSpaceOnUse" gradientTransform="translate(113.875 619.325) scale(127.926 695.133)">
<stop offset="0.36" stop-color="#DAD8DB"/>
<stop offset="1" stop-color="#868686"/>
</radialGradient>
<radialGradient id="paint1_radial_35_293" cx="0" cy="0" r="1" gradientUnits="userSpaceOnUse" gradientTransform="translate(113.881 616.948) scale(61.0523 331.748)">
<stop stop-color="#DAD8DB"/>
<stop offset="0.19" stop-color="#D4D2D5"/>
<stop offset="0.44" stop-color="#C2C0C2"/>
<stop offset="0.75" stop-color="#A4A4A5"/>
<stop offset="1" stop-color="#868686"/>
</radialGradient>
<radialGradient id="paint2_radial_35_293" cx="0" cy="0" r="1" gradientUnits="userSpaceOnUse" gradientTransform="translate(113.881 616.948) scale(61.0523 331.748)">
<stop stop-color="#DAD8DB"/>
<stop offset="0.19" stop-color="#D4D2D5"/>
<stop offset="0.44" stop-color="#C2C0C2"/>
<stop offset="0.75" stop-color="#A4A4A5"/>
<stop offset="1" stop-color="#868686"/>
</radialGradient>
<radialGradient id="paint3_radial_35_293" cx="0" cy="0" r="1" gradientUnits="userSpaceOnUse" gradientTransform="translate(103.776 113.938) scale(125.127 125.17)">
<stop stop-color="#6E7072"/>
<stop offset="1" stop-color="#595C5D"/>
</radialGradient>
<linearGradient id="paint4_linear_35_293" x1="83.7236" y1="222.484" x2="75.8328" y2="209.373" gradientUnits="userSpaceOnUse">
<stop stop-color="#494143"/>
<stop offset="0.15" stop-color="#494143" stop-opacity="0.702"/>
<stop offset="0.39" stop-color="#494143" stop-opacity="0.322"/>
<stop offset="0.6" stop-color="#494143" stop-opacity="0.078"/>
<stop offset="0.76" stop-color="#494143" stop-opacity="0"/>
</linearGradient>
<radialGradient id="paint5_radial_35_293" cx="0" cy="0" r="1" gradientUnits="userSpaceOnUse" gradientTransform="translate(386.978 129.133) scale(229.085 229.131)">
<stop stop-color="white"/>
<stop offset="0.09" stop-color="white" stop-opacity="0.949"/>
<stop offset="0.25" stop-color="white" stop-opacity="0.831"/>
<stop offset="0.45" stop-color="white" stop-opacity="0.631"/>
<stop offset="0.7" stop-color="white" stop-opacity="0.361"/>
<stop offset="0.99" stop-color="white" stop-opacity="0.02"/>
<stop offset="1" stop-color="white" stop-opacity="0"/>
</radialGradient>
<radialGradient id="paint6_radial_35_293" cx="0" cy="0" r="1" gradientUnits="userSpaceOnUse" gradientTransform="translate(202.802 245.728) scale(79.9274 156.647)">
<stop offset="0.36" stop-color="#DAD8DB"/>
<stop offset="1" stop-color="#868686"/>
</radialGradient>
<radialGradient id="paint7_radial_35_293" cx="0" cy="0" r="1" gradientUnits="userSpaceOnUse" gradientTransform="translate(202.809 172.96) scale(44.2486 44.2419)">
<stop offset="0.36" stop-color="#DAD8DB"/>
<stop offset="1" stop-color="#868686"/>
</radialGradient>
<radialGradient id="paint8_radial_35_293" cx="0" cy="0" r="1" gradientUnits="userSpaceOnUse" gradientTransform="translate(202.809 172.96) scale(44.2486 44.2419)">
<stop offset="0.36" stop-color="#DAD8DB"/>
<stop offset="1" stop-color="#868686"/>
</radialGradient>
<radialGradient id="paint9_radial_35_293" cx="0" cy="0" r="1" gradientUnits="userSpaceOnUse" gradientTransform="translate(187.86 173.127) scale(67.3222 67.3139)">
<stop stop-color="#6E7072"/>
<stop offset="0.74" stop-color="#5F6263"/>
<stop offset="1" stop-color="#595C5D"/>
</radialGradient>
<linearGradient id="paint10_linear_35_293" x1="167.48" y1="243.196" x2="159.378" y2="229.778" gradientUnits="userSpaceOnUse">
<stop stop-color="#494143"/>
<stop offset="0.15" stop-color="#494143" stop-opacity="0.702"/>
<stop offset="0.39" stop-color="#494143" stop-opacity="0.322"/>
<stop offset="0.6" stop-color="#494143" stop-opacity="0.078"/>
<stop offset="0.76" stop-color="#494143" stop-opacity="0"/>
</linearGradient>
<linearGradient id="paint11_linear_35_293" x1="164.522" y1="109.155" x2="163.423" y2="107.345" gradientUnits="userSpaceOnUse">
<stop stop-color="#494143"/>
<stop offset="0.15" stop-color="#494143" stop-opacity="0.702"/>
<stop offset="0.39" stop-color="#494143" stop-opacity="0.322"/>
<stop offset="0.6" stop-color="#494143" stop-opacity="0.078"/>
<stop offset="0.76" stop-color="#494143" stop-opacity="0"/>
</linearGradient>
<linearGradient id="paint12_linear_35_293" x1="161.467" y1="109.158" x2="160.356" y2="107.348" gradientUnits="userSpaceOnUse">
<stop stop-color="#494143"/>
<stop offset="0.15" stop-color="#494143" stop-opacity="0.702"/>
<stop offset="0.39" stop-color="#494143" stop-opacity="0.322"/>
<stop offset="0.6" stop-color="#494143" stop-opacity="0.078"/>
<stop offset="0.76" stop-color="#494143" stop-opacity="0"/>
</linearGradient>
<linearGradient id="paint13_linear_35_293" x1="167.277" y1="109.155" x2="166.207" y2="107.331" gradientUnits="userSpaceOnUse">
<stop stop-color="#494143"/>
<stop offset="0.15" stop-color="#494143" stop-opacity="0.702"/>
<stop offset="0.39" stop-color="#494143" stop-opacity="0.322"/>
<stop offset="0.6" stop-color="#494143" stop-opacity="0.078"/>
<stop offset="0.76" stop-color="#494143" stop-opacity="0"/>
</linearGradient>
<radialGradient id="paint14_radial_35_293" cx="0" cy="0" r="1" gradientUnits="userSpaceOnUse" gradientTransform="translate(383.492 182.838) scale(135.477 135.435)">
<stop stop-color="white"/>
<stop offset="0.09" stop-color="white" stop-opacity="0.949"/>
<stop offset="0.25" stop-color="white" stop-opacity="0.831"/>
<stop offset="0.45" stop-color="white" stop-opacity="0.631"/>
<stop offset="0.7" stop-color="white" stop-opacity="0.361"/>
<stop offset="0.99" stop-color="white" stop-opacity="0.02"/>
<stop offset="1" stop-color="white" stop-opacity="0"/>
</radialGradient>
<clipPath id="clip0_35_293">
<rect width="200" height="248.78" fill="white"/>
</clipPath>
</defs>
</svg>
